<svg width="35" height="35" viewBox="0 0 35 35" fill="none" xmlns="http://www.w3.org/2000/svg">
<path d="M16.9632 17.0903L17.7415 17.0903C17.9519 16.2055 18.507 15.1516 19.3237 14.0566C20.1365 12.9667 21.1914 11.859 22.3728 10.8668C24.7529 8.86776 27.57 7.4 29.8967 7.4C30.7105 7.4 31.2208 7.4737 31.5188 7.61354C31.657 7.67841 31.732 7.74977 31.7763 7.82099C31.8211 7.89322 31.8546 7.9981 31.8546 8.16305C31.8546 8.72264 31.6257 9.61779 31.2257 10.6986C30.8312 11.7646 30.2879 12.9654 29.6973 14.1165C29.1066 15.2677 28.4729 16.3608 27.9 17.2125C27.6133 17.6387 27.3455 17.9989 27.1091 18.2739C26.8652 18.5577 26.6803 18.7201 26.5625 18.7858C26.0537 19.0692 25.3936 19.1502 24.7627 19.0284L24.4324 19.7297C25.2133 20.3739 25.7877 21.3635 25.7877 22.7507C25.7877 26.1533 23.4525 27.8531 21.1887 27.8531C20.5782 27.8531 20.0743 27.7221 19.6556 27.463C19.2367 27.2038 18.8749 26.799 18.5771 26.2057C17.9731 25.0025 17.6585 23.0773 17.6585 20.236H17.2585H16.8585C16.8585 23.0831 16.59 25.0108 16.0289 26.2164C15.7527 26.8098 15.4133 27.2109 15.0147 27.4668C14.6164 27.7224 14.1272 27.8534 13.5167 27.8534C11.2528 27.8534 8.91761 26.1536 8.91761 22.7511C8.91761 21.3635 9.49197 20.3743 10.2732 19.7301L9.94297 19.0287C9.31173 19.1506 8.65123 19.0695 8.14246 18.7861C8.02459 18.7204 7.8397 18.558 7.59577 18.2743C7.35936 17.9992 7.09152 17.639 6.80479 17.2128C6.23178 16.3611 5.59804 15.268 5.00735 14.1168C4.41674 12.9658 3.87343 11.765 3.47888 10.6989C3.07888 9.61814 2.85001 8.72299 2.85001 8.1634C2.85001 7.99845 2.8835 7.89353 2.92837 7.82125C2.97262 7.74998 3.04767 7.67859 3.18591 7.61369C3.48389 7.47379 3.99412 7.4 4.80796 7.4C7.13467 7.4 9.95181 8.86776 12.332 10.8668C13.5134 11.859 14.5683 12.9667 15.3811 14.0566C16.1977 15.1515 16.7528 16.2055 16.9632 17.0903Z" stroke="white" stroke-width="0.8"/>
</svg>
