<svg width="35" height="35" viewBox="0 0 35 35" fill="none" xmlns="http://www.w3.org/2000/svg">
<path d="M32.4489 7.53355H23.1844L21.3136 4.39069C21.1305 4.08341 20.7995 3.89514 20.4418 3.89514H14.5579C14.2003 3.89514 13.8691 4.08341 13.6862 4.39069L11.8154 7.53355H8.77528V6.84085C8.77528 6.28062 8.32108 5.82641 7.76085 5.82641H4.0073C3.44695 5.82641 2.99286 6.28062 2.99286 6.84085V7.53355H2.55096C1.142 7.53355 0 8.67566 0 10.0844V28.5539C0 29.9627 1.142 31.1048 2.55084 31.1048H32.4489C33.8578 31.1048 34.9999 29.9627 34.9999 28.5539V10.0844C35 8.67566 33.8578 7.53355 32.4489 7.53355ZM17.4999 26.5801C13.4897 26.5801 10.2389 23.3293 10.2389 19.319C10.2389 15.309 13.4897 12.058 17.4999 12.058C21.51 12.058 24.7609 15.309 24.7609 19.319C24.7609 23.3293 21.51 26.5801 17.4999 26.5801ZM30.8574 12.7926H27.6787C27.1184 12.7926 26.6642 12.3384 26.6642 11.7781C26.6642 11.2177 27.1184 10.7635 27.6787 10.7635H30.8574C31.4179 10.7635 31.8719 11.2177 31.8719 11.7781C31.8719 12.3384 31.4177 12.7926 30.8574 12.7926Z" fill="white"/>
<path d="M17.4999 24.3915C20.3014 24.3915 22.5724 22.1205 22.5724 19.319C22.5724 16.5175 20.3014 14.2465 17.4999 14.2465C14.6984 14.2465 12.4274 16.5175 12.4274 19.319C12.4274 22.1205 14.6984 24.3915 17.4999 24.3915Z" fill="white"/>
</svg>
