<svg width="35" height="35" viewBox="0 0 35 35" fill="none" xmlns="http://www.w3.org/2000/svg">
<path d="M29.736 15.2798C29.4274 10.0298 25.0997 5.83331 19.8829 5.83331C16.7154 5.83331 13.6482 7.38673 11.7477 9.92131C11.704 9.89856 11.6579 9.88281 11.6136 9.86181C11.4981 9.80581 11.3808 9.75273 11.2612 9.7049C11.1947 9.67865 11.1282 9.65473 11.0612 9.6314C10.9427 9.58998 10.8226 9.55323 10.7001 9.51998C10.633 9.5019 10.5665 9.48323 10.4988 9.46806C10.3676 9.43831 10.2334 9.41556 10.0981 9.39515C10.0392 9.3864 9.98142 9.37473 9.92192 9.36831C9.72825 9.34673 9.53225 9.33331 9.33333 9.33331C6.43825 9.33331 4.08333 11.6882 4.08333 14.5833C4.08333 14.6574 4.088 14.7303 4.09267 14.8032V14.8056C1.66658 16.1286 0 18.8994 0 21.6731C0 25.8049 3.36117 29.1666 7.49292 29.1666H21.7892C21.8499 29.1666 21.91 29.1631 21.9707 29.1585L22.0068 29.1538L22.085 29.1585C22.1445 29.1631 22.204 29.1666 22.2652 29.1666H27.9837C31.8523 29.1666 35 26.019 35 22.1503C35 18.9484 32.7676 16.0766 29.736 15.2798ZM27.9837 28H22.2652C22.2308 28 22.1976 27.9971 22.1637 27.9947L22.0057 27.9883L21.8902 27.9947C21.8569 27.9971 21.8231 28 21.7892 28H7.49292C4.00458 28 1.16667 25.1621 1.16667 21.6731C1.16667 19.25 2.74458 16.7346 4.91925 15.6922L5.25 15.5341V15.1666C5.25 15.0926 5.25467 15.0173 5.25875 14.9415L5.264 14.8481L5.257 14.7256C5.2535 14.6784 5.25 14.6311 5.25 14.5833C5.25 12.3322 7.08225 10.5 9.33333 10.5C9.51358 10.5 9.6915 10.5157 9.86825 10.5391C9.91375 10.5449 9.95925 10.5525 10.0042 10.5601C10.1599 10.5857 10.3133 10.6196 10.4644 10.6633C10.4848 10.6691 10.5058 10.6732 10.5262 10.6791C10.6925 10.7298 10.8547 10.794 11.0133 10.8663C11.0547 10.885 11.095 10.9054 11.1358 10.9252C11.2758 10.9946 11.4129 11.0705 11.5453 11.1562C12.6694 11.8842 13.4167 13.1471 13.4167 14.5833C13.4167 14.9059 13.6774 15.1666 14 15.1666C14.3226 15.1666 14.5833 14.9059 14.5833 14.5833C14.5833 12.9768 13.8565 11.5389 12.7167 10.5752C14.3891 8.38773 17.143 6.99998 19.8829 6.99998C24.4008 6.99998 28.1528 10.5787 28.5442 15.1013C27.9481 15.0593 27.0556 15.0377 26.1625 15.1736C25.844 15.2221 25.6252 15.5196 25.6737 15.8381C25.7174 16.1268 25.9659 16.3339 26.2494 16.3339C26.2786 16.3339 26.3083 16.3316 26.3375 16.3269C27.6366 16.1303 28.9905 16.3146 29.0698 16.3257C31.7858 16.842 33.8333 19.3439 33.8333 22.1503C33.8333 25.3756 31.2089 28 27.9837 28Z" fill="white"/>
</svg>
