<svg width="35" height="35" viewBox="0 0 35 35" fill="none" xmlns="http://www.w3.org/2000/svg">
<path d="M32.8536 17.1465L30.4036 14.6966C29.786 14.0808 29.0655 13.5778 28.2746 13.2101C28.7518 12.1696 28.9993 11.0384 29.0001 9.89369V6.50028C29.0001 6.22416 28.7763 6.00029 28.5001 6.00029H25.1067C23.9618 6.00098 22.8304 6.24822 21.7897 6.72527C21.422 5.93442 20.919 5.21393 20.3032 4.59633L17.8532 2.14639C17.658 1.9512 17.3415 1.9512 17.1462 2.14639L14.6963 4.59633C14.0805 5.21393 13.5775 5.93442 13.2098 6.72527C12.1693 6.24841 11.0384 6.0011 9.89381 6.00029H6.50035C6.22422 6.00029 6.00035 6.22416 6.00035 6.50028V9.89369C6.00104 11.0385 6.24829 12.1698 6.72534 13.2106C5.93448 13.5783 5.21398 14.0813 4.59637 14.6971L2.14639 17.147C1.9512 17.3423 1.9512 17.6587 2.14639 17.854L4.59637 20.3039C5.21398 20.9197 5.93448 21.4227 6.72534 21.7904C6.24847 22.8309 6.00116 23.9618 6.00035 25.1063V28.4997C6.00035 28.7758 6.22422 28.9997 6.50035 28.9997H9.89381C11.0387 28.999 12.17 28.7518 13.2108 28.2747C13.5785 29.0656 14.0815 29.7861 14.6973 30.4037L17.1472 32.8536C17.3425 33.0488 17.659 33.0488 17.8542 32.8536L20.3042 30.4037C20.92 29.7861 21.423 29.0656 21.7907 28.2747C22.8312 28.7517 23.9621 28.9989 25.1067 28.9997H28.5001C28.7763 28.9997 29.0001 28.7758 29.0001 28.4997V25.1063C28.9994 23.9615 28.7522 22.8302 28.2751 21.7894C29.066 21.4217 29.7865 20.9187 30.4041 20.3029L32.8541 17.853C33.0488 17.6577 33.0486 17.3416 32.8536 17.1465ZM22.1577 7.65725C23.0808 7.22526 24.0875 7.00101 25.1067 7.00026H28.0001V9.89369C27.9997 10.9132 27.7756 11.9201 27.3436 12.8436C26.6175 12.6161 25.8611 12.5003 25.1002 12.5001H24.9002C23.8491 12.4998 22.8098 12.7213 21.8502 13.1501C22.279 12.1905 22.5005 11.1512 22.5002 10.1002V9.90019C22.5003 9.13952 22.3848 8.38323 22.1577 7.65725ZM24.9002 13.5001H25.1002C25.6908 13.5013 26.2785 13.5827 26.8472 13.7421C26.585 14.1381 26.2834 14.5066 25.9472 14.8421L25.8412 14.9481C24.531 16.2648 22.7487 17.0029 20.8912 16.998L18.7072 17L20.3032 15.4041C21.5198 14.1809 23.1751 13.4953 24.9002 13.5001ZM21.5002 9.90019V10.1002C21.5049 11.8251 20.8193 13.4802 19.5962 14.6966L18.0002 16.293V14.1066C17.9953 12.2491 18.7334 10.4668 20.0502 9.15671L20.1562 9.05071C20.4917 8.71447 20.8602 8.41298 21.2562 8.15074C21.4165 8.72016 21.4986 9.30871 21.5002 9.90019ZM15.4043 5.30331L17.5002 3.20736L19.5962 5.30331C20.1432 5.85217 20.5874 6.49465 20.9077 7.20026C20.3794 7.52394 19.8903 7.90762 19.4502 8.34373L19.3442 8.44973C18.5274 9.26708 17.8982 10.2524 17.5002 11.3372C17.1023 10.2526 16.4733 9.26752 15.6568 8.45023L15.5508 8.34423C15.1105 7.90793 14.6213 7.52406 14.0928 7.20026C14.4131 6.49471 14.8573 5.85223 15.4043 5.30331ZM13.5003 9.90019C13.5015 9.30958 13.5829 8.72191 13.7423 8.15324C14.1383 8.41542 14.5068 8.71697 14.8423 9.05321L14.9483 9.15921C16.2651 10.4693 17.0032 12.2516 16.9982 14.1091V16.2955L15.4023 14.6996C14.1792 13.4822 13.4943 11.8258 13.5003 10.1002V9.90019V9.90019ZM14.6968 15.4041L16.2933 17H14.1068C12.2493 17.0049 10.4669 16.2668 9.15682 14.9501L9.05082 14.8441C8.71458 14.5086 8.41308 14.1401 8.15083 13.7441C8.72026 13.5838 9.30882 13.5018 9.90031 13.5001H10.1003C11.8253 13.4954 13.4804 14.181 14.6968 15.4041ZM7.00034 7.00026H9.89381C10.9133 7.0007 11.9203 7.22482 12.8438 7.65675C12.6163 8.38285 12.5005 9.13927 12.5003 9.90019V10.1002C12.5 11.1512 12.7215 12.1905 13.1503 13.1501C12.1907 12.7213 11.1514 12.4998 10.1003 12.5001H9.90031C9.13963 12.5001 8.38333 12.6155 7.65734 12.8426C7.22534 11.9195 7.00109 10.9129 7.00034 9.89369V7.00026V7.00026ZM5.30336 19.5959L3.20738 17.5L5.30336 15.4041C5.85223 14.8571 6.49472 14.4129 7.20034 14.0926C7.52402 14.6209 7.90771 15.1099 8.34383 15.55L8.44983 15.656C9.2672 16.4728 10.2525 17.102 11.3373 17.5C10.2527 17.8979 9.26763 18.5269 8.45033 19.3435L8.34433 19.4495C7.90802 19.8897 7.52415 20.3789 7.20034 20.9074C6.49478 20.5871 5.85229 20.1429 5.30336 19.5959ZM12.8428 27.3427C11.9197 27.7747 10.913 27.999 9.89381 27.9997H7.00034V25.1063C7.00078 24.0868 7.2249 23.0799 7.65684 22.1564C8.38295 22.3839 9.13938 22.4997 9.90031 22.4999H10.1003C11.1514 22.5002 12.1907 22.2787 13.1503 21.8499C12.7215 22.8095 12.5 23.8488 12.5003 24.8998V25.0998C12.5002 25.8605 12.6157 26.6168 12.8428 27.3427ZM10.1003 21.4999H9.90031C9.3097 21.4986 8.72201 21.4173 8.15333 21.2579C8.41552 20.8619 8.71708 20.4934 9.05332 20.1579L9.15932 20.0519C10.4694 18.7352 12.2518 17.997 14.1093 18.002L16.2933 18L14.6973 19.5959C13.4808 20.8191 11.8254 21.5047 10.1003 21.4999ZM13.5003 25.0998V24.8998C13.4956 23.1749 14.1812 21.5198 15.4043 20.3034L17.0002 18.707V20.8934C17.0052 22.7509 16.2671 24.5332 14.9503 25.8433L14.8443 25.9493C14.5088 26.2855 14.1403 26.5871 13.7443 26.8493C13.584 26.2799 13.502 25.6914 13.5003 25.0998ZM19.5962 29.6967L17.5002 31.7926L15.4043 29.6967C14.8575 29.1485 14.4133 28.507 14.0928 27.8022C14.6212 27.4778 15.1103 27.0933 15.5503 26.6563L15.6563 26.5503C16.473 25.7329 17.1022 24.7476 17.5002 23.6628C17.8982 24.7474 18.5272 25.7325 19.3437 26.5498L19.4497 26.6558C19.8898 27.0928 20.3791 27.4773 20.9077 27.8017C20.5872 28.5067 20.143 29.1484 19.5962 29.6967ZM21.5002 25.0998C21.499 25.6904 21.4176 26.2781 21.2582 26.8468C20.8622 26.5846 20.4937 26.283 20.1582 25.9468L20.0522 25.8408C18.7354 24.5307 17.9973 22.7484 18.0022 20.8909V18.707L19.5982 20.3029C20.8206 21.5197 21.5056 23.175 21.5002 24.8998V25.0998V25.0998ZM20.3037 19.5959L18.7072 18H20.8937C22.7512 17.995 24.5335 18.7332 25.8437 20.0499L25.9497 20.1559C26.2859 20.4914 26.5874 20.8599 26.8497 21.2559C26.2802 21.4161 25.6917 21.4983 25.1002 21.4999H24.9002C23.1753 21.5046 21.5201 20.819 20.3037 19.5959ZM28.0001 27.9997H25.1067C24.0872 27.9993 23.0802 27.7752 22.1567 27.3433C22.3842 26.6171 22.5 25.8607 22.5002 25.0998V24.8998C22.5005 23.8488 22.279 22.8095 21.8502 21.8499C22.8098 22.2787 23.8491 22.5002 24.9002 22.4999H25.1002C25.8608 22.4999 26.6172 22.3845 27.3431 22.1574C27.7751 23.0805 27.9994 24.0871 28.0001 25.1063V27.9997ZM29.6971 19.5959C29.1489 20.1427 28.5074 20.5869 27.8026 20.9074C27.4782 20.379 27.0936 19.8899 26.6567 19.4499L26.5507 19.344C25.7333 18.5272 24.748 17.898 23.6632 17.5C24.7478 17.1021 25.7329 16.4731 26.5502 15.6565L26.6562 15.5505C27.0931 15.1104 27.4777 14.6212 27.8021 14.0926C28.5069 14.4131 29.1485 14.8573 29.6966 15.4041L31.7931 17.5L29.6971 19.5959Z" fill="white"/>
</svg>
