<svg width="35" height="35" viewBox="0 0 35 35" fill="none" xmlns="http://www.w3.org/2000/svg">
<g clip-path="url(#clip0)">
<path d="M17.8743 5.77273V1L11.5107 7.36364L17.8743 13.7273V8.95455C23.1243 8.95455 27.4198 13.25 27.4198 18.5C27.4198 20.0909 26.9425 21.6818 26.3062 22.9545L28.6925 25.3409C29.8062 23.2727 30.6016 21.0455 30.6016 18.5C30.6016 11.5 24.8743 5.77273 17.8743 5.77273ZM17.8743 28.0455C12.6243 28.0455 8.32888 23.75 8.32888 18.5C8.32888 16.9091 8.80616 15.3182 9.44252 14.0455L7.05616 11.6591C5.94252 13.7273 5.14706 15.9545 5.14706 18.5C5.14706 25.5 10.8743 31.2273 17.8743 31.2273V36L24.238 29.6364L17.8743 23.2727V28.0455Z" fill="white"/>
</g>
<defs>
<clipPath id="clip0">
<rect width="35" height="35" fill="white"/>
</clipPath>
</defs>
</svg>
