<svg width="35" height="35" viewBox="0 0 35 35" fill="none" xmlns="http://www.w3.org/2000/svg">
<path d="M30.9795 22.1726C30.9352 21.9292 30.8238 21.7224 30.6463 21.5521C30.2528 21.1749 29.7959 21.0958 29.2755 21.3147C27.8793 21.9349 26.4318 22.2447 24.9342 22.2447C23.0555 22.2447 21.3228 21.8013 19.7362 20.9134C18.1496 20.0258 16.8931 18.8221 15.9665 17.3019C15.0396 15.7819 14.5764 14.1221 14.5764 12.3223C14.5764 10.9239 14.8654 9.59542 15.4428 8.33679C16.0203 7.07822 16.855 5.97471 17.9465 5.02619C18.3656 4.64938 18.4609 4.2115 18.2324 3.71287C18.0166 3.21449 17.6295 2.97747 17.071 3.00168C15.129 3.07458 13.2884 3.49131 11.5493 4.25105C9.81027 5.01098 8.31554 6.01093 7.06517 7.25149C5.81493 8.49178 4.82471 9.96021 4.09479 11.6565C3.36506 13.3529 3 15.1313 3 16.9917C3 18.8888 3.3872 20.7006 4.16148 22.4273C4.93595 24.154 5.97665 25.6436 7.28418 26.8961C8.59158 28.1482 10.1465 29.1454 11.9492 29.8874C13.7517 30.6289 15.6428 31 17.6229 31C20.4666 31 23.0906 30.2613 25.4959 28.7838C27.9014 27.3065 29.7008 25.3335 30.8941 22.865C30.9958 22.6463 31.0242 22.4155 30.9795 22.1726ZM22.8305 27.5432C21.1869 28.2913 19.4509 28.6651 17.6229 28.6651C15.9728 28.6651 14.3958 28.3551 12.8914 27.7351C11.3873 27.1151 10.0924 26.2852 9.00699 25.2453C7.92187 24.2057 7.0557 22.9654 6.40807 21.5245C5.76071 20.0834 5.43699 18.5727 5.43699 16.9918C5.43699 14.3775 6.24628 12.0428 7.86472 9.98756C9.48302 7.93264 11.5681 6.5403 14.1195 5.81071C12.7993 7.81707 12.1392 9.98756 12.1392 12.3224C12.1392 14.5357 12.7103 16.5846 13.8529 18.4698C14.9952 20.3544 16.5503 21.8437 18.5179 22.9385C20.4852 24.0328 22.6237 24.58 24.9342 24.58C25.6449 24.58 26.3433 24.5254 27.0288 24.4158C25.8739 25.7535 24.4741 26.7959 22.8305 27.5432Z" fill="white"/>
</svg>
