<svg width="35" height="35" viewBox="0 0 35 35" fill="none" xmlns="http://www.w3.org/2000/svg">
<path d="M34.2397 23.9657C34.1867 23.6615 34.0533 23.403 33.8407 23.1901C33.3695 22.7187 32.8224 22.6197 32.1993 22.8933C30.5273 23.6686 28.7941 24.0559 27.0008 24.0559C24.7511 24.0559 22.6763 23.5017 20.7764 22.3918C18.8765 21.2823 17.372 19.7776 16.2624 17.8774C15.1525 15.9774 14.5978 13.9027 14.5978 11.6529C14.5978 9.90497 14.9439 8.24432 15.6353 6.67104C16.3268 5.09783 17.3264 3.71844 18.6334 2.53279C19.1351 2.06179 19.2493 1.51444 18.9757 0.891145C18.7173 0.268172 18.2537 -0.0281012 17.585 0.002165C15.2595 0.0932831 13.0555 0.614197 10.973 1.56387C8.89061 2.51378 7.10075 3.76372 5.60349 5.31441C4.10639 6.86477 2.92066 8.70031 2.04661 10.8206C1.1728 12.9411 0.735657 15.1641 0.735657 17.4897C0.735657 19.861 1.19931 22.1257 2.12647 24.2841C3.05386 26.4425 4.30005 28.3045 5.86575 29.8701C7.43129 31.4353 9.29326 32.6817 11.4519 33.6093C13.6103 34.5362 15.8748 35 18.2458 35C21.651 35 24.7932 34.0766 27.6734 32.2297C30.5538 30.3831 32.7085 27.9169 34.1375 24.8312C34.2592 24.5579 34.2933 24.2694 34.2397 23.9657ZM24.4817 30.6789C22.5135 31.6142 20.4348 32.0814 18.2458 32.0814C16.2699 32.0814 14.3815 31.6939 12.5801 30.9188C10.779 30.1438 9.22841 29.1065 7.92872 27.8066C6.62935 26.5072 5.59215 24.9568 4.81665 23.1556C4.04147 21.3543 3.65383 19.4659 3.65383 17.4898C3.65383 14.2219 4.62291 11.3035 6.56091 8.73449C8.49875 6.16585 10.9955 4.42543 14.0507 3.51345C12.4699 6.02139 11.6793 8.73449 11.6793 11.6531C11.6793 14.4197 12.3632 16.9808 13.7315 19.3372C15.0993 21.693 16.9614 23.5546 19.3175 24.9232C21.6733 26.2911 24.234 26.975 27.0008 26.975C27.8517 26.975 28.6881 26.9068 29.509 26.7698C28.126 28.4419 26.4498 29.7449 24.4817 30.6789Z" fill="white"/>
</svg>
