<svg width="35" height="36" viewBox="0 0 35 36" fill="none" xmlns="http://www.w3.org/2000/svg">
<g clip-path="url(#clip0)">
<path d="M15.2251 15.586C15.237 15.4477 15.1698 15.3167 15.0518 15.2431L11.5116 13.1065L11.2646 8.97766C11.2561 8.83941 11.1701 8.71802 11.0437 8.66429C10.9173 8.61057 10.7703 8.63294 10.6637 8.72521L7.5379 11.4323L3.53212 10.3913C3.39728 10.3574 3.2563 10.4 3.16502 10.5046C3.07375 10.6092 3.05156 10.7578 3.10641 10.8835L4.71436 14.6952L2.48739 18.1794C2.41135 18.2964 2.40968 18.4449 2.48219 18.5635C2.52129 18.6299 2.58121 18.6817 2.65062 18.7112C2.70515 18.7343 2.76247 18.7441 2.82364 18.7379L6.94472 18.3852L9.56931 21.5813C9.60835 21.6271 9.65514 21.6616 9.70719 21.6838C9.89062 21.7617 10.1061 21.6748 10.184 21.4913C10.1956 21.4641 10.2037 21.4382 10.2068 21.4103L11.1403 17.4027L14.9894 15.8926C15.124 15.8445 15.2131 15.7243 15.2251 15.586ZM10.701 16.7975C10.589 16.8407 10.5069 16.9375 10.4804 17.0549L9.66485 20.5508L7.38493 17.7762C7.31038 17.6831 7.19283 17.6361 7.07261 17.6435L3.4953 17.9493L5.42836 14.9226C5.49206 14.8209 5.50371 14.6971 5.45705 14.5865L4.06494 11.2792L7.54089 12.1828C7.65733 12.2118 7.77996 12.1849 7.86919 12.1058L10.5827 9.756L10.7973 13.3414C10.8047 13.4616 10.8705 13.5685 10.9722 13.6322L14.0461 15.4888L10.701 16.7975Z" fill="white"/>
</g>
<g clip-path="url(#clip1)">
<path d="M27.7666 28.1274C27.7785 27.9891 27.7113 27.8581 27.5933 27.7846L24.0531 25.6479L23.8061 21.5191C23.7976 21.3809 23.7116 21.2595 23.5852 21.2057C23.4588 21.152 23.3117 21.1744 23.2052 21.2667L20.0794 23.9738L16.0736 22.9328C15.9388 22.8989 15.7978 22.9414 15.7065 23.046C15.6152 23.1506 15.593 23.2992 15.6479 23.4249L17.2558 27.2367L15.0289 30.7209C14.9528 30.8378 14.9512 30.9863 15.0237 31.1049C15.0628 31.1713 15.1227 31.2231 15.1921 31.2526C15.2466 31.2758 15.3039 31.2855 15.3651 31.2793L19.4862 30.9266L22.1108 34.1227C22.1498 34.1686 22.1966 34.2031 22.2487 34.2252C22.4321 34.3031 22.6476 34.2162 22.7255 34.0328C22.7371 34.0055 22.7452 33.9797 22.7483 33.9517L23.6817 29.9441L27.5309 28.434C27.6655 28.3859 27.7546 28.2657 27.7666 28.1274ZM23.2424 29.339C23.1305 29.3821 23.0484 29.4789 23.0218 29.5964L22.2063 33.0922L19.9264 30.3177C19.8519 30.2245 19.7343 30.1775 19.6141 30.185L16.0368 30.4908L17.9698 27.464C18.0335 27.3623 18.0452 27.2385 17.9985 27.128L16.6064 23.8206L20.0824 24.7242C20.1988 24.7532 20.3214 24.7263 20.4107 24.6472L23.1242 22.2974L23.3388 25.8828C23.3462 26.003 23.4119 26.11 23.5136 26.1737L26.5875 28.0302L23.2424 29.339Z" fill="white"/>
</g>
<g clip-path="url(#clip2)">
<path d="M33.0155 9.75609C33.0275 9.61777 32.9602 9.48677 32.8422 9.41322L29.3021 7.2766L29.0551 3.14777C29.0465 3.00952 28.9606 2.88812 28.8342 2.8344C28.7077 2.78067 28.5607 2.80305 28.4542 2.89532L25.3283 5.60245L21.3226 4.56144C21.1877 4.52755 21.0467 4.57006 20.9555 4.67467C20.8642 4.77927 20.842 4.92787 20.8968 5.0536L22.5048 8.86532L20.2778 12.3495C20.2018 12.4665 20.2001 12.615 20.2726 12.7336C20.3117 12.8 20.3717 12.8518 20.4411 12.8813C20.4956 12.9044 20.5529 12.9142 20.6141 12.908L24.7352 12.5553L27.3597 15.7514C27.3988 15.7972 27.4456 15.8317 27.4976 15.8539C27.6811 15.9318 27.8965 15.8449 27.9745 15.6614C27.9861 15.6342 27.9941 15.6083 27.9972 15.5804L28.9307 11.5728L32.7799 10.0627C32.9145 10.0146 33.0036 9.8944 33.0155 9.75609ZM28.4914 10.9676C28.3794 11.0108 28.2973 11.1076 28.2708 11.2251L27.4553 14.7209L25.1754 11.9463C25.1008 11.8532 24.9833 11.8062 24.863 11.8136L21.2857 12.1194L23.2188 9.09267C23.2825 8.99098 23.2941 8.86717 23.2475 8.75662L21.8554 5.44926L25.3313 6.35289C25.4478 6.38189 25.5704 6.355 25.6596 6.27586L28.3731 3.9261L28.5877 7.51147C28.5952 7.63169 28.6609 7.73864 28.7626 7.80235L31.8365 9.65887L28.4914 10.9676Z" fill="white"/>
</g>
<defs>
<clipPath id="clip0">
<rect width="13.1224" height="13.1224" fill="white" transform="translate(5.13251 5.8299) rotate(23.0247)"/>
</clipPath>
<clipPath id="clip1">
<rect width="13.1224" height="13.1224" fill="white" transform="translate(17.674 18.3713) rotate(23.0247)"/>
</clipPath>
<clipPath id="clip2">
<rect width="13.1224" height="13.1224" fill="white" transform="translate(22.9229) rotate(23.0247)"/>
</clipPath>
</defs>
</svg>
